<?xml version="1.0" encoding="UTF-8" standalone="no"?>
<svg
   xmlns:dc="http://purl.org/dc/elements/1.1/"
   xmlns:cc="http://creativecommons.org/ns#"
   xmlns:rdf="http://www.w3.org/1999/02/22-rdf-syntax-ns#"
   xmlns:svg="http://www.w3.org/2000/svg"
   xmlns="http://www.w3.org/2000/svg"
   xmlns:xlink="http://www.w3.org/1999/xlink"
   xmlns:sodipodi="http://sodipodi.sourceforge.net/DTD/sodipodi-0.dtd"
   xmlns:inkscape="http://www.inkscape.org/namespaces/inkscape"
   width="25.4mm"
   height="128.5mm"
   viewBox="0 0 25.4 128.5"
   version="1.1"
   id="svg8"
   inkscape:version="1.0.2-2 (e86c870879, 2021-01-15)"
   sodipodi:docname="Kompas.svg">
  <defs
     id="defs2">
    <clipPath
       id="SVGID_36_">
      <use
         xlink:href="#SVGID_35_"
         style="overflow:visible"
         id="use531"
         x="0"
         y="0"
         width="100%"
         height="100%" />
    </clipPath>
    <clipPath
       id="clipPath1390">
      <use
         xlink:href="#SVGID_35_"
         style="overflow:visible"
         id="use1388"
         x="0"
         y="0"
         width="100%"
         height="100%" />
    </clipPath>
    <clipPath
       id="SVGID_26_">
      <use
         xlink:href="#SVGID_25_"
         style="overflow:visible"
         id="use483"
         x="0"
         y="0"
         width="100%"
         height="100%" />
    </clipPath>
    <clipPath
       id="SVGID_28_">
      <use
         xlink:href="#SVGID_27_"
         style="overflow:visible"
         id="use489"
         x="0"
         y="0"
         width="100%"
         height="100%" />
    </clipPath>
    <clipPath
       id="clipPath1398">
      <use
         xlink:href="#SVGID_27_"
         style="overflow:visible"
         id="use1396"
         x="0"
         y="0"
         width="100%"
         height="100%" />
    </clipPath>
    <clipPath
       id="SVGID_32_">
      <use
         xlink:href="#SVGID_31_"
         style="overflow:visible"
         id="use503"
         x="0"
         y="0"
         width="100%"
         height="100%" />
    </clipPath>
    <clipPath
       id="SVGID_34_">
      <use
         xlink:href="#SVGID_33_"
         style="overflow:visible"
         id="use509"
         x="0"
         y="0"
         width="100%"
         height="100%" />
    </clipPath>
    <clipPath
       id="SVGID_24_">
      <use
         xlink:href="#SVGID_23_"
         style="overflow:visible"
         id="use469"
         x="0"
         y="0"
         width="100%"
         height="100%" />
    </clipPath>
    <clipPath
       id="clipPath1408">
      <use
         xlink:href="#SVGID_23_"
         style="overflow:visible"
         id="use1406"
         x="0"
         y="0"
         width="100%"
         height="100%" />
    </clipPath>
    <clipPath
       id="SVGID_14_">
      <use
         xlink:href="#SVGID_13_"
         style="overflow:visible"
         id="use421"
         x="0"
         y="0"
         width="100%"
         height="100%" />
    </clipPath>
    <clipPath
       id="SVGID_16_">
      <use
         xlink:href="#SVGID_15_"
         style="overflow:visible"
         id="use427"
         x="0"
         y="0"
         width="100%"
         height="100%" />
    </clipPath>
    <clipPath
       id="clipPath1416">
      <use
         xlink:href="#SVGID_15_"
         style="overflow:visible"
         id="use1414"
         x="0"
         y="0"
         width="100%"
         height="100%" />
    </clipPath>
    <clipPath
       id="SVGID_20_">
      <use
         xlink:href="#SVGID_19_"
         style="overflow:visible"
         id="use441"
         x="0"
         y="0"
         width="100%"
         height="100%" />
    </clipPath>
    <clipPath
       id="SVGID_22_">
      <use
         xlink:href="#SVGID_21_"
         style="overflow:visible"
         id="use447"
         x="0"
         y="0"
         width="100%"
         height="100%" />
    </clipPath>
    <clipPath
       id="SVGID_12_">
      <use
         xlink:href="#SVGID_11_"
         style="overflow:visible"
         id="use407"
         x="0"
         y="0"
         width="100%"
         height="100%" />
    </clipPath>
    <clipPath
       id="clipPath1426">
      <use
         xlink:href="#SVGID_11_"
         style="overflow:visible"
         id="use1424"
         x="0"
         y="0"
         width="100%"
         height="100%" />
    </clipPath>
    <clipPath
       id="SVGID_2_">
      <use
         xlink:href="#SVGID_1_"
         style="overflow:visible"
         id="use359"
         x="0"
         y="0"
         width="100%"
         height="100%" />
    </clipPath>
    <clipPath
       id="SVGID_4_">
      <use
         xlink:href="#SVGID_3_"
         style="overflow:visible"
         id="use365"
         x="0"
         y="0"
         width="100%"
         height="100%" />
    </clipPath>
    <clipPath
       id="clipPath1434">
      <use
         xlink:href="#SVGID_3_"
         style="overflow:visible"
         id="use1432"
         x="0"
         y="0"
         width="100%"
         height="100%" />
    </clipPath>
    <clipPath
       id="SVGID_8_">
      <use
         xlink:href="#SVGID_7_"
         style="overflow:visible"
         id="use379"
         x="0"
         y="0"
         width="100%"
         height="100%" />
    </clipPath>
    <clipPath
       id="SVGID_10_">
      <use
         xlink:href="#SVGID_9_"
         style="overflow:visible"
         id="use385"
         x="0"
         y="0"
         width="100%"
         height="100%" />
    </clipPath>
    <rect
       id="SVGID_1_"
       x="350.01001"
       y="213.47"
       width="37.439999"
       height="37.68" />
    <rect
       id="SVGID_3_"
       x="350.01001"
       y="213.47"
       width="37.439999"
       height="37.68" />
    <rect
       id="SVGID_5_"
       x="350.01001"
       y="213.47"
       width="37.439999"
       height="37.68" />
    <rect
       id="SVGID_7_"
       x="350.01001"
       y="213.47"
       width="37.439999"
       height="37.68" />
    <rect
       id="SVGID_9_"
       x="350.01001"
       y="213.47"
       width="37.439999"
       height="37.68" />
    <rect
       id="SVGID_11_"
       x="348.70999"
       y="215.7"
       width="26.719999"
       height="26.67" />
    <rect
       id="SVGID_13_"
       x="350.01001"
       y="269.39001"
       width="37.439999"
       height="37.68" />
    <rect
       id="SVGID_15_"
       x="350.01001"
       y="269.39001"
       width="37.439999"
       height="37.68" />
    <rect
       id="SVGID_17_"
       x="350.01001"
       y="269.39001"
       width="37.439999"
       height="37.68" />
    <rect
       id="SVGID_19_"
       x="350.01001"
       y="269.39001"
       width="37.439999"
       height="37.68" />
    <rect
       id="SVGID_21_"
       x="350.01001"
       y="269.39001"
       width="37.439999"
       height="37.68" />
    <rect
       id="SVGID_23_"
       x="348.70999"
       y="271.42999"
       width="26.700001"
       height="26.719999" />
    <rect
       id="SVGID_25_"
       x="350.01001"
       y="157.78999"
       width="37.439999"
       height="37.68" />
    <rect
       id="SVGID_27_"
       x="350.01001"
       y="157.78999"
       width="37.439999"
       height="37.68" />
    <rect
       id="SVGID_29_"
       x="350.01001"
       y="157.78999"
       width="37.439999"
       height="37.68" />
    <rect
       id="SVGID_31_"
       x="350.01001"
       y="157.78999"
       width="37.439999"
       height="37.68" />
    <rect
       id="SVGID_33_"
       x="350.01001"
       y="157.78999"
       width="37.439999"
       height="37.68" />
    <rect
       id="SVGID_35_"
       x="348.70999"
       y="159.87"
       width="26.690001"
       height="26.719999" />
  </defs>
  <sodipodi:namedview
     id="base"
     pagecolor="#ffffff"
     bordercolor="#666666"
     borderopacity="1.0"
     inkscape:pageopacity="0.0"
     inkscape:pageshadow="2"
     inkscape:zoom="1.4"
     inkscape:cx="72.7629"
     inkscape:cy="163.97452"
     inkscape:document-units="mm"
     inkscape:current-layer="layer3"
     inkscape:document-rotation="0"
     showgrid="false"
     inkscape:window-width="2560"
     inkscape:window-height="1361"
     inkscape:window-x="-9"
     inkscape:window-y="-9"
     inkscape:window-maximized="1" />
  <metadata
     id="metadata5">
    <rdf:RDF>
      <cc:Work
         rdf:about="">
        <dc:format>image/svg+xml</dc:format>
        <dc:type
           rdf:resource="http://purl.org/dc/dcmitype/StillImage" />
        <dc:title />
      </cc:Work>
    </rdf:RDF>
  </metadata>
  <g
     inkscape:groupmode="layer"
     id="layer3"
     inkscape:label="background"
     style="display:inline">
    <path
       d="M 3.5373921e-7,128.5 H 25.4 V 5.3424241e-8 H 3.5373921e-7 Z"
       id="path4"
       style="stroke-width:0.355;stroke-miterlimit:10;stroke-dasharray:none;fill:#1a1a1a;fill-opacity:1"
       sodipodi:nodetypes="ccccc" />
    <path
       class="st0"
       d="M 2.1798797,87.456193 H 6.4514553 V 87.279827 H 2.3562458 V 49.294196 c -0.059966,-0.0388 -0.1199309,-0.07407 -0.1763661,-0.119931"
       id="path6"
       style="fill:#ffffff;stroke-width:0.352731" />
    <path
       class="st0"
       d="m 2.1798797,46.422964 c 0.056433,-0.04586 0.116398,-0.08466 0.1763661,-0.119931 V 29.509498 C 2.2962803,29.474223 2.2363149,29.435428 2.1798797,29.3931"
       id="path8"
       style="fill:#ffffff;stroke-width:0.352731" />
    <path
       class="st0"
       d="M 2.23279,21.63301 2.18341,21.6577 v 4.962928 c 0.056433,-0.04233 0.116398,-0.08112 0.1763661,-0.116398 V 21.770576 L 22.599499,12.066939 v 75.216417 h -4.09522 v 0.176366 h 4.271583 v -75.67497"
       id="path10"
       style="fill:#ffffff;stroke-width:0.352731" />
    <polyline
       class="st0"
       points="330.33,244.99 330.19,245.06 330.19,406.08 342.29,406.08 342.29,405.59 330.68,405.59 330.68,245.37   392.71,215.63 392.71,405.59 381.1,405.59 381.1,406.08 393.2,406.08 393.2,214.85 "
       id="polyline12"
       style="fill:#ffffff"
       transform="matrix(0.35273128,0,0,0.35273128,-115.10327,-44.352431)" />
    <polyline
       class="st0"
       points="395.54,438.48 383.44,438.48 383.44,437.99 395.05,437.99 395.05,269.26 328.34,301.23 328.33,437.99   339.95,437.99 339.95,438.48 327.85,438.48 327.85,300.93 327.99,300.86 395.54,268.49 "
       id="polyline14"
       style="fill:#ffffff"
       transform="matrix(0.35273128,0,0,0.35273128,-115.10327,-44.352431)" />
    <path
       class="st0"
       d="m 19.975178,66.966033 v -0.176365 h -8.405592 v 1.576708 H 5.3685713 v 0.176366 h 6.2010147 v 6.832405 h 1.594346 v 1.400344 H 6.7195319 v 0.176364 h 6.6207661 v -1.576708 h 4.768926 v -0.176366 h -4.768926 v -6.832405 h -1.594346 v -1.400343 m 1.41798,8.236276 h -1.41798 V 68.54627 h 1.41798 z"
       id="path16"
       style="fill:#ffffff;stroke-width:0.352731" />
    <line
       class="st1"
       x1="12.723018"
       y1="36.137325"
       x2="12.680685"
       y2="36.077362"
       id="line18"
       style="fill:#f2f3f3;stroke-width:0.352731" />
    <polyline
       class="st1"
       points="362.01,229.54 362.02,229.49 362.13,229.56 "
       id="polyline20"
       style="fill:#f2f3f3"
       transform="matrix(0.35273128,0,0,0.35273128,-115.10327,-44.352431)" />
    <line
       class="st1"
       x1="12.49022"
       y1="36.602924"
       x2="12.49022"
       y2="36.613503"
       id="line22"
       style="fill:#f2f3f3;stroke-width:0.352731" />
    <polyline
       class="st0"
       points="368.82,454.49 367.05,454.49 367.05,454 371.13,454 371.13,454.49 369.35,454.49 369.35,458.28   368.82,458.28 "
       id="polyline24"
       style="fill:#ffffff"
       transform="matrix(0.35273128,0,0,0.35273128,-115.10327,-44.352431)" />
    <path
       class="st0"
       d="m 16.02811,116.20379 h 0.190475 v 0.21164 c 0,-0.0317 0.07055,-0.22928 0.271603,-0.22928 0.06702,0 0.126983,0.0212 0.155202,0.0424 v 0.18694 c -0.03527,-0.0283 -0.09524,-0.0529 -0.162257,-0.0529 -0.176365,0 -0.268075,0.19048 -0.268075,0.37038 v 0.56789 h -0.190475"
       id="path26"
       style="fill:#ffffff;stroke-width:0.352731" />
    <path
       class="st0"
       d="m 16.952266,115.91103 c 0,-0.0705 0.05643,-0.12705 0.130516,-0.12705 0.07055,0 0.126983,0.0564 0.126983,0.12705 0,0.0705 -0.05643,0.13051 -0.126983,0.13051 -0.07407,0 -0.130516,-0.06 -0.130516,-0.13051 m 0.03527,0.29276 h 0.190475 v 1.097 h -0.190475 z"
       id="path28"
       style="fill:#ffffff;stroke-width:0.352731" />
    <path
       class="st0"
       d="m 17.608346,117.43129 h 0.204584 c 0,0.12692 0.141093,0.19401 0.299821,0.19401 0.186954,0 0.29982,-0.0881 0.29982,-0.30687 v -0.1799 c -0.04933,0.12345 -0.215164,0.18695 -0.391529,0.18695 -0.352732,0 -0.500879,-0.25397 -0.500879,-0.5679 0,-0.32098 0.15873,-0.58907 0.504405,-0.58907 0.186949,0 0.33509,0.0776 0.388003,0.19754 v -0.16931 h 0.190481 v 1.12169 c 0,0.34214 -0.250447,0.48323 -0.504409,0.48323 -0.243386,0.004 -0.490297,-0.11639 -0.490297,-0.37037 m 0.818343,-0.68429 c 0,-0.17285 -0.06706,-0.40918 -0.366847,-0.40918 -0.303349,0 -0.359785,0.23987 -0.359785,0.40213 0,0.17989 0.07055,0.42327 0.366839,0.42327 0.296294,0 0.359793,-0.24338 0.359793,-0.41622"
       id="path30"
       style="fill:#ffffff;stroke-width:0.352731" />
    <path
       class="st0"
       d="m 18.998107,117.43129 h 0.204586 c 0,0.12692 0.141088,0.19401 0.299814,0.19401 0.186949,0 0.299827,-0.0881 0.299827,-0.30687 v -0.1799 c -0.04933,0.12345 -0.215172,0.18695 -0.391535,0.18695 -0.352727,0 -0.500881,-0.25397 -0.500881,-0.5679 0,-0.32098 0.158739,-0.58907 0.504414,-0.58907 0.186949,0 0.335089,0.0776 0.388002,0.19754 v -0.16931 h 0.190482 v 1.12169 c 0,0.34214 -0.250447,0.48323 -0.504414,0.48323 -0.239862,0.004 -0.490295,-0.11639 -0.490295,-0.37037 m 0.821865,-0.68429 c 0,-0.17285 -0.06706,-0.40918 -0.366845,-0.40918 -0.303347,0 -0.359779,0.23987 -0.359779,0.40213 0,0.17989 0.07052,0.42327 0.366831,0.42327 0.292775,0 0.359793,-0.24338 0.359793,-0.41622"
       id="path32"
       style="fill:#ffffff;stroke-width:0.352731" />
    <path
       class="st0"
       d="m 20.296162,116.74346 c 0,-0.24338 0.105853,-0.56788 0.532623,-0.56788 0.345675,0 0.525571,0.21516 0.525571,0.51499 v 0.12345 h -0.853607 c 0,0.15872 0.07759,0.35272 0.335089,0.35272 0.197534,0 0.292761,-0.11292 0.328037,-0.2469 h 0.197534 c -0.04586,0.21516 -0.201054,0.40916 -0.525571,0.40916 -0.419745,0 -0.539676,-0.33157 -0.539676,-0.58554 m 0.86066,-0.0952 c 0,-0.17637 -0.112918,-0.31042 -0.320984,-0.31042 -0.250434,0 -0.328037,0.18695 -0.328037,0.31042 z"
       id="path34"
       style="fill:#ffffff;stroke-width:0.352731" />
    <path
       class="st0"
       d="m 21.671808,116.20379 h 0.190481 v 0.21164 c 0,-0.0317 0.07052,-0.22928 0.271604,-0.22928 0.06706,0 0.126917,0.0212 0.155193,0.0424 v 0.18694 c -0.03533,-0.0283 -0.09519,-0.0529 -0.162258,-0.0529 -0.176364,0 -0.268072,0.19048 -0.268072,0.37038 v 0.56789 h -0.190468"
       id="path36"
       style="fill:#ffffff;stroke-width:0.352731" />
    <path
       class="st0"
       d="m 5.3579887,116.56358 c 0,-0.52557 0.3104031,-0.77602 0.7160443,-0.77602 0.3104044,0 0.6525527,0.14816 0.7019355,0.53263 H 6.5678573 c -0.045861,-0.26102 -0.2751304,-0.3492 -0.4902967,-0.3492 -0.2998219,0 -0.5149882,0.16931 -0.5149882,0.59611 0,0.42681 0.2151663,0.61376 0.5255708,0.61376 0.2892392,0 0.4409138,-0.16579 0.472659,-0.32452 h 0.2081112 c -0.038795,0.18695 -0.2116387,0.51147 -0.6737165,0.51147 -0.4303313,-0.004 -0.7372082,-0.28219 -0.7372082,-0.80423"
       id="path38"
       style="fill:#ffffff;stroke-width:0.352731" />
    <polyline
       class="st0"
       points="346.1,454.09 346.7,454.09 348.18,457.95 349.66,454.09 350.25,454.09 348.57,458.38 347.78,458.38   "
       id="polyline40"
       style="fill:#ffffff"
       transform="matrix(0.35273128,0,0,0.35273128,-115.10327,-44.352431)" />
    <polyline
       class="st0"
       points="357.83,135.8 357.83,137.74 356.82,137.74 356.82,132.1 357.83,132.1 357.83,134.51 360.34,132.1   361.68,132.1 359.49,134.31 361.76,137.74 360.59,137.74 358.74,134.96 "
       id="polyline42"
       style="fill:#ffffff"
       transform="matrix(0.35273128,0,0,0.35273128,-115.10327,-44.352431)" />
    <path
       class="st0"
       d="m 14.659512,3.2274919 c 0,0.4514952 -0.229275,1.0476113 -0.955901,1.0476113 -0.726627,0 -0.955902,-0.5996436 -0.955902,-1.0476113 0,-0.4479689 0.190475,-1.0229211 0.955902,-1.0264486 0.768954,0 0.955901,0.5784797 0.955901,1.0264486 m -0.373895,0.00347 c 0,-0.2469115 -0.105812,-0.6772441 -0.578479,-0.6772441 -0.47266,0 -0.578479,0.4303326 -0.578479,0.6772441 0,0.2363301 0.14462,0.6878266 0.578479,0.6913542 0.43386,0.00347 0.578479,-0.4550241 0.578479,-0.6913542"
       id="path44"
       style="fill:#ffffff;stroke-width:0.352731" />
    <polyline
       class="st0"
       points="374.93,137.74 373.92,137.74 373.92,134.03 372.72,137.74 371.2,137.74 370,134.03 370,137.74   368.99,137.74 368.99,132.1 370.08,132.1 371.96,137.02 371.97,137.02 373.84,132.1 374.93,132.1 "
       id="polyline46"
       style="fill:#ffffff"
       transform="matrix(0.35273128,0,0,0.35273128,-115.10327,-44.352431)" />
    <path
       class="st0"
       d="m 19.340262,2.8183232 c 0,0.4091687 -0.268085,0.5749522 -0.768966,0.5714247 l -0.638437,-0.00347 V 4.2293092 H 17.576601 V 2.2399048 h 0.994695 c 0.567899,0.00347 0.768966,0.2433852 0.768966,0.5784797 M 17.936387,2.5855819 v 0.4656053 h 0.691355 c 0.218691,0 0.363312,-0.088188 0.363312,-0.2328027 0,-0.1446196 -0.141088,-0.2292751 -0.363312,-0.2292751 h -0.691355 z"
       id="path48"
       style="fill:#ffffff;stroke-width:0.352731" />
    <path
       class="st0"
       d="M 21.319081,4.2327754 H 20.948716 L 20.701802,3.6895697 H 19.904627 L 19.657713,4.2327754 H 19.287349 L 20.123318,2.243371 h 0.359793 M 20.01044,3.3474201 h 0.578484 L 20.299682,2.5961018 Z"
       id="path50"
       style="fill:#ffffff;stroke-width:0.352731" />
    <path
       class="st0"
       d="m 22.539533,4.2751032 c -0.514985,0 -1.040556,-0.1481472 -1.040556,-0.7442632 h 0.38095 c 0,0.3315683 0.398587,0.3915323 0.659606,0.3915323 0.278657,0 0.423278,-0.1305161 0.423278,-0.2504389 0,-0.1728386 -0.324517,-0.2292765 -0.514986,-0.2680767 -0.409172,-0.084655 -0.864192,-0.169311 -0.864192,-0.61728 0,-0.4268037 0.409159,-0.5855334 0.874764,-0.5855334 0.493829,0 0.910054,0.2257475 0.910054,0.7971722 h -0.38095 c 0,-0.303348 -0.285709,-0.4409139 -0.529104,-0.4409139 -0.215158,0 -0.497347,0.04938 -0.497347,0.2151663 0,0.162256 0.292761,0.2186939 0.518518,0.2610216 0.437382,0.084656 0.917092,0.1657835 0.917092,0.6243337 0,0.3738961 -0.268071,0.61728 -0.857127,0.61728"
       id="path52"
       style="fill:#ffffff;stroke-width:0.352731" />
    <path
       class="st0"
       d="m 13.908195,125.06087 c 0,0.32099 -0.232803,0.42328 -0.426805,0.44444 v 0.004 c 0.208111,0.007 0.56437,0.0353 0.56437,0.4656 0,0.38095 -0.197529,0.58553 -0.966484,0.58553 h -0.934738 v -1.98939 h 0.962957 c 0.60317,0 0.8007,0.16225 0.8007,0.49029 m -1.403871,0.28924 h 0.57848 c 0.331567,0 0.476186,-0.0988 0.476186,-0.25044 0,-0.14462 -0.144619,-0.21516 -0.447967,-0.21516 l -0.606699,-0.004 z m 0,0.34215 v 0.52205 h 0.57848 c 0.486769,0 0.613752,-0.10586 0.613752,-0.27161 0,-0.19048 -0.19753,-0.25044 -0.613752,-0.25044 z"
       id="path54"
       style="fill:#ffffff;stroke-width:0.352731" />
    <path
       class="st0"
       d="m 16.260913,126.55998 h -0.370369 l -0.246911,-0.5432 h -0.797172 l -0.246913,0.5432 h -0.370367 l 0.835972,-1.9894 h 0.363314 m -0.472661,1.10404 h 0.57848 l -0.289239,-0.75131 z"
       id="path56"
       style="fill:#ffffff;stroke-width:0.352731" />
    <path
       class="st0"
       d="m 17.48489,126.60231 c -0.514988,0 -1.040557,-0.14815 -1.040557,-0.74426 h 0.380949 c 0,0.33157 0.398587,0.39153 0.659608,0.39153 0.278658,0 0.423278,-0.13051 0.423278,-0.25044 0,-0.17283 -0.324513,-0.22928 -0.514988,-0.26807 -0.409168,-0.0847 -0.864192,-0.16931 -0.864192,-0.61728 0,-0.42681 0.409169,-0.58554 0.878302,-0.58554 0.493823,0 0.91004,0.22575 0.91004,0.79718 h -0.380943 c 0,-0.30335 -0.285713,-0.44092 -0.529097,-0.44092 -0.215167,0 -0.497352,0.0493 -0.497352,0.21516 0,0.16226 0.292767,0.2187 0.518516,0.26103 0.437386,0.0847 0.917099,0.16578 0.917099,0.62433 -0.0067,0.37037 -0.275129,0.61728 -0.860663,0.61728"
       id="path58"
       style="fill:#ffffff;stroke-width:0.352731" />
    <polyline
       class="st0"
       points="384.26,479.87 382.09,479.87 382.09,484.54 381.08,484.54 381.08,479.87 378.9,479.87 378.9,478.9   384.26,478.9 "
       id="polyline60"
       style="fill:#ffffff"
       transform="matrix(0.35273128,0,0,0.35273128,-115.10327,-44.352431)" />
    <polyline
       class="st0"
       points="389.87,483.57 389.87,484.54 385.25,484.54 385.25,478.9 386.26,478.9 386.26,483.57 "
       id="polyline62"
       style="fill:#ffffff"
       transform="matrix(0.35273128,0,0,0.35273128,-115.10327,-44.352431)" />
    <polyline
       class="st0"
       points="343.08,302.21 343.78,302.21 343.78,307.27 347.76,307.27 347.76,307.93 343.08,307.93 "
       id="polyline64"
       style="fill:#ffffff"
       transform="matrix(0.35273128,0,0,0.35273128,-115.10327,-44.352431)" />
    <path
       class="st0"
       d="m 7.8447449,63.523376 c 0,-0.317458 0.1410921,-0.758372 0.7230981,-0.758372 0.5820072,0 0.7230993,0.440914 0.7230993,0.758372 0,0.345677 -0.169311,0.783063 -0.7230993,0.783063 -0.553787,0 -0.7230981,-0.437386 -0.7230981,-0.783063 m 1.1781221,-0.0071 c 0,-0.204583 -0.052913,-0.532624 -0.4585516,-0.532624 -0.4021123,0 -0.4585502,0.328041 -0.4585502,0.532624 0,0.250439 0.081123,0.567897 0.4585502,0.567897 0.3809498,0.0035 0.4585516,-0.317458 0.4585516,-0.567897"
       id="path66"
       style="fill:#ffffff;stroke-width:0.352731" />
    <path
       class="st0"
       d="M 9.5554914,62.803804 H 9.809458 v 0.282186 c 0.04938,-0.151675 0.1375645,-0.320986 0.483242,-0.320986 0.380949,0 0.582006,0.208111 0.582006,0.740736 v 0.758372 h -0.253967 v -0.701936 c 0,-0.345677 -0.0776,-0.578479 -0.391531,-0.578479 -0.3104045,0 -0.4162238,0.229276 -0.4162238,0.465605 v 0.81481 H 9.5590176"
       id="path68"
       style="fill:#ffffff;stroke-width:0.352731" />
    <path
       class="st0"
       d="m 11.305038,64.444004 h 0.271603 c 0,0.172839 0.190475,0.257494 0.402114,0.257494 0.250439,0 0.398586,-0.119931 0.398586,-0.405641 V 64.056 c -0.06702,0.162256 -0.285712,0.250439 -0.522042,0.250439 -0.47266,0 -0.666663,-0.342149 -0.666663,-0.754844 0,-0.430333 0.211639,-0.783063 0.673718,-0.783063 0.250439,0 0.447968,0.105812 0.514987,0.264547 v -0.225747 h 0.253966 v 1.49558 c 0,0.455024 -0.335094,0.641971 -0.673716,0.641971 -0.317458,-0.0035 -0.652553,-0.162257 -0.652553,-0.500879 m 1.096994,-0.9171 c 0,-0.229276 -0.08819,-0.543207 -0.486769,-0.543207 -0.405641,0 -0.483242,0.317458 -0.483242,0.536152 0,0.239857 0.09171,0.564369 0.48677,0.564369 0.395058,0 0.483241,-0.324512 0.483241,-0.557314"
       id="path70"
       style="fill:#ffffff;stroke-width:0.352731" />
    <path
       class="st0"
       d="m 12.941712,62.415799 c 0,-0.09171 0.0776,-0.169311 0.172837,-0.169311 0.09171,0 0.169311,0.0776 0.169311,0.169311 0,0.09524 -0.0776,0.172839 -0.169311,0.172839 -0.09876,0 -0.172837,-0.0776 -0.172837,-0.172839 m 0.04233,0.388005 h 0.253967 v 1.460308 h -0.253967 z"
       id="path72"
       style="fill:#ffffff;stroke-width:0.352731" />
    <path
       class="st0"
       d="m 13.67892,63.763234 v -0.7619 h -0.201058 v -0.19753 H 13.67892 V 62.42991 h 0.257494 v 0.373894 h 0.320984 v 0.19753 h -0.324512 v 0.624334 c 0,0.338622 0.02117,0.430332 0.151675,0.430332 0.05997,0 0.119931,-0.01764 0.176365,-0.03527 v 0.215166 c -0.05643,0.03528 -0.137565,0.05291 -0.229275,0.05291 -0.261022,0 -0.352731,-0.172838 -0.352731,-0.525569"
       id="path74"
       style="fill:#ffffff;stroke-width:0.352731" />
    <path
       class="st0"
       d="m 14.500784,63.562176 v -0.758372 h 0.253966 v 0.758372 c 0,0.345677 0.08819,0.514988 0.34215,0.52557 0.229275,-0.0071 0.356258,-0.162256 0.356258,-0.451496 v -0.832446 h 0.253967 v 1.460308 h -0.253967 v -0.271603 c -0.02822,0.105813 -0.162256,0.306875 -0.416222,0.31393 -0.335096,-0.0071 -0.536152,-0.194002 -0.536152,-0.744263"
       id="path76"
       style="fill:#ffffff;stroke-width:0.352731" />
    <path
       class="st0"
       d="m 15.9752,63.541012 c 0,-0.412695 0.190475,-0.776008 0.666663,-0.776008 0.253966,0 0.451495,0.102293 0.525569,0.264548 v -0.783064 h 0.253967 v 2.017624 h -0.253967 v -0.211639 c -0.06702,0.162256 -0.27513,0.253966 -0.522042,0.253966 -0.476188,0 -0.67019,-0.342149 -0.67019,-0.765427 m 1.213396,-0.01053 c 0,-0.225748 -0.08466,-0.546734 -0.486769,-0.546734 -0.405641,0 -0.483242,0.320986 -0.483242,0.536152 0,0.239858 0.09171,0.567897 0.486769,0.567897 0.395059,0 0.483242,-0.328039 0.483242,-0.557315"
       id="path78"
       style="fill:#ffffff;stroke-width:0.352731" />
    <path
       class="st0"
       d="m 17.685946,63.523376 c 0,-0.324513 0.141094,-0.758372 0.71252,-0.758372 0.462072,0 0.701934,0.289239 0.701934,0.687825 v 0.162258 h -1.139323 c 0,0.215165 0.105812,0.472659 0.444441,0.472659 0.261019,0 0.391535,-0.148147 0.437383,-0.32804 h 0.264551 c -0.05999,0.285712 -0.268071,0.546733 -0.701934,0.546733 -0.560842,0 -0.719572,-0.440913 -0.719572,-0.783063 m 1.146383,-0.126983 c 0,-0.23633 -0.148154,-0.412696 -0.426811,-0.412696 -0.335094,0 -0.437386,0.246912 -0.437386,0.412696 z"
       id="path80"
       style="fill:#ffffff;stroke-width:0.352731" />
    <polyline
       class="st0"
       points="346.57,190.31 347.27,190.31 347.27,195.36 351.24,195.36 351.24,196.03 346.57,196.03 "
       id="polyline82"
       style="fill:#ffffff"
       transform="matrix(0.35273128,0,0,0.35273128,-115.10327,-44.352431)" />
    <path
       class="st0"
       d="m 9.0475584,24.341986 c 0,-0.384477 0.3492033,-0.497352 0.6666615,-0.497352 0.2328026,0 0.4268051,0.0635 0.5114601,0.130517 0,-0.282186 -0.109345,-0.462078 -0.444441,-0.462078 -0.2716028,0 -0.4056412,0.119931 -0.4056412,0.261021 H 9.1216313 c 0,-0.303349 0.2751304,-0.483243 0.6807716,-0.483243 0.5079331,0 0.6807711,0.278658 0.6807711,0.744264 v 0.754845 h -0.253966 v -0.215166 c -0.0776,0.151675 -0.218694,0.257494 -0.529097,0.257494 -0.373896,0.0035 -0.6525526,-0.144621 -0.6525526,-0.490297 m 1.1745946,0 V 24.165625 C 10.11634,24.10214 9.9399674,24.052747 9.7353837,24.052747 c -0.2186938,0 -0.426805,0.05643 -0.426805,0.257494 0,0.225749 0.2610215,0.306877 0.455024,0.306877 0.1975286,-0.0035 0.3915313,-0.09171 0.4585503,-0.275131"
       id="path84"
       style="fill:#ffffff;stroke-width:0.352731" />
    <path
       class="st0"
       d="m 10.874706,24.289076 v -0.7619 h -0.201057 v -0.197528 h 0.201057 V 22.955752 H 11.1322 v 0.373896 h 0.320985 v 0.197528 h -0.324513 v 0.624335 c 0,0.338622 0.02116,0.430332 0.151675,0.430332 0.05997,0 0.119931,-0.01764 0.176366,-0.03528 v 0.215166 c -0.05643,0.03528 -0.137566,0.05291 -0.229275,0.05291 -0.264549,0 -0.352732,-0.172838 -0.352732,-0.52557"
       id="path86"
       style="fill:#ffffff;stroke-width:0.352731" />
    <path
       class="st0"
       d="m 11.710679,22.94517 c 0,-0.09171 0.0776,-0.169311 0.172839,-0.169311 0.09171,0 0.169311,0.0776 0.169311,0.169311 0,0.09171 -0.07407,0.172839 -0.169311,0.172839 -0.09876,0 -0.172839,-0.08112 -0.172839,-0.172839 m 0.04586,0.388004 h 0.253966 v 1.460307 H 11.75654 Z"
       id="path88"
       style="fill:#ffffff;stroke-width:0.352731" />
    <path
       class="st0"
       d="m 12.447888,24.289076 v -0.7619 H 12.24683 v -0.197528 h 0.201058 v -0.373896 h 0.257494 v 0.373896 h 0.320985 v 0.197528 h -0.324513 v 0.624335 c 0,0.338622 0.02116,0.430332 0.151675,0.430332 0.05997,0 0.12345,-0.01764 0.176364,-0.03528 v 0.215166 c -0.05643,0.03528 -0.137564,0.05291 -0.229275,0.05291 -0.26102,0 -0.35273,-0.172838 -0.35273,-0.52557"
       id="path90"
       style="fill:#ffffff;stroke-width:0.352731" />
    <path
       class="st0"
       d="m 13.269751,24.091547 v -0.758373 h 0.253967 v 0.758373 c 0,0.345676 0.08819,0.514987 0.342149,0.52557 0.229275,-0.0071 0.356259,-0.162258 0.356259,-0.451497 v -0.832446 h 0.253966 v 1.460307 h -0.253966 v -0.271603 c -0.02822,0.105813 -0.162256,0.306877 -0.416223,0.313931 -0.335094,-0.01053 -0.536152,-0.194001 -0.536152,-0.744262"
       id="path92"
       style="fill:#ffffff;stroke-width:0.352731" />
    <path
       class="st0"
       d="m 14.744167,24.066856 c 0,-0.416224 0.190475,-0.77601 0.666663,-0.77601 0.253967,0 0.451497,0.102293 0.52557,0.264549 v -0.779536 h 0.253966 v 2.017622 H 15.9364 v -0.211638 c -0.06702,0.162257 -0.275131,0.253966 -0.522042,0.253966 -0.476188,0 -0.670191,-0.345676 -0.670191,-0.768953 m 1.213397,-0.0071 c 0,-0.225748 -0.08466,-0.546733 -0.48677,-0.546733 -0.405641,0 -0.483241,0.320985 -0.483241,0.536152 0,0.239856 0.09171,0.567897 0.486769,0.567897 0.398586,-0.0035 0.483242,-0.328041 0.483242,-0.557316"
       id="path94"
       style="fill:#ffffff;stroke-width:0.352731" />
    <path
       class="st0"
       d="m 16.454915,24.049219 c 0,-0.324513 0.141092,-0.758373 0.70899,-0.758373 0.462077,0 0.701935,0.289241 0.701935,0.687827 v 0.162256 h -1.139322 c 0,0.215166 0.102293,0.469132 0.444442,0.469132 0.26102,0 0.391531,-0.148147 0.437386,-0.328039 h 0.268075 c -0.0635,0.285712 -0.268075,0.546733 -0.701934,0.546733 -0.560843,0.0071 -0.719572,-0.437387 -0.719572,-0.779536 m 1.146376,-0.126983 c 0,-0.23633 -0.148147,-0.412696 -0.426804,-0.412696 -0.331568,0 -0.437388,0.246911 -0.437388,0.412696 z"
       id="path96"
       style="fill:#ffffff;stroke-width:0.352731" />
    <path
       class="st0"
       d="m 1.5696548,5.7036655 h 0.7548445 c 0.4303326,0 0.5820073,0.1834199 0.5820073,0.4444415 0,0.3139306 -0.2222214,0.4303314 -0.5820073,0.4303314 L 1.7566021,6.5749722 V 7.2169435 H 1.5696548 M 2.3244993,6.4021348 c 0.2433852,0 0.4021136,-0.045861 0.4021136,-0.2504403 0,-0.1657835 -0.1022931,-0.2716029 -0.4021136,-0.2716029 H 1.7566021 v 0.5220432 z"
       id="path98"
       style="fill:#ffffff;stroke-width:0.352731" />
    <path
       class="st0"
       d="m 3.1640006,6.1234155 h 0.1904749 v 0.2116388 c 0,-0.031743 0.070551,-0.2292751 0.2716029,-0.2292751 0.067018,0 0.1269832,0.021171 0.1552022,0.038795 v 0.1869473 c -0.035275,-0.028223 -0.095241,-0.052913 -0.1587298,-0.052913 -0.176366,0 -0.2680753,0.1904749 -0.2680753,0.3703687 v 0.567897 H 3.1640006"
       id="path100"
       style="fill:#ffffff;stroke-width:0.352731" />
    <path
       class="st0"
       d="m 3.9294277,6.6630939 c 0,-0.2398565 0.1058127,-0.5678973 0.5432057,-0.5678973 0.4338589,0 0.5432058,0.3280408 0.5432058,0.5678973 0,0.2610216 -0.1269833,0.589061 -0.5432058,0.589061 C 4.056411,7.2486887 3.9294277,6.9205879 3.9294277,6.6630939 m 0.8853553,-0.00707 c 0,-0.1552023 -0.038795,-0.3985876 -0.3421496,-0.3985876 -0.3033493,0 -0.3421495,0.2469128 -0.3421495,0.3985876 0,0.1869474 0.059965,0.4268038 0.3421495,0.4268038 0.2821855,0 0.3421496,-0.2363289 0.3421496,-0.4268038"
       id="path102"
       style="fill:#ffffff;stroke-width:0.352731" />
    <path
       class="st0"
       d="M 5.4496993,7.0581538 V 7.2168822 H 5.2592244 V 5.7036655 H 5.4496993 V 6.289199 c 0.056433,-0.1234504 0.2010562,-0.1975299 0.3880035,-0.1975299 0.3421496,0 0.5044069,0.2680766 0.5044069,0.5925887 0,0.3104044 -0.1516747,0.5643709 -0.5008793,0.5643709 -0.1869474,0 -0.3421496,-0.070551 -0.3915311,-0.1904749 m 0.698408,-0.3985875 c 0,-0.162256 -0.056433,-0.4021138 -0.3597859,-0.4021138 -0.3033494,0 -0.366841,0.2398578 -0.366841,0.4091689 0,0.1728386 0.063485,0.4162225 0.3633134,0.4162225 0.2927668,0 0.3633135,-0.2433839 0.3633135,-0.4232776"
       id="path104"
       style="fill:#ffffff;stroke-width:0.352731" />
    <path
       class="st0"
       d="m 6.5537485,6.8782602 c 0,-0.2857117 0.2610202,-0.3738949 0.5008779,-0.3738949 0.1763661,0 0.3174582,0.045861 0.3844774,0.09876 0,-0.2116411 -0.081123,-0.3456795 -0.3350945,-0.3456795 -0.2045851,0 -0.3033494,0.088188 -0.3033494,0.19753 H 6.610185 c 0,-0.2292751 0.2045837,-0.3597859 0.5114606,-0.3597859 0.3809498,0 0.5114606,0.2081112 0.5114606,0.5573183 V 7.2204056 H 7.4426313 V 7.0581497 C 7.3826659,7.1710281 7.280374,7.2521508 7.0440438,7.2521508 6.7653872,7.2486846 6.5537485,7.1392723 6.5537485,6.878256 m 0.8818277,0 V 6.7442177 c -0.077603,-0.045847 -0.2116388,-0.084656 -0.366841,-0.084656 -0.1622559,0 -0.3174581,0.042328 -0.3174581,0.1904749 0,0.169311 0.1940024,0.2328026 0.338622,0.2328026 0.1516747,0.00347 0.2927668,-0.067018 0.3456771,-0.2045837"
       id="path106"
       style="fill:#ffffff;stroke-width:0.352731" />
    <path
       class="st0"
       d="M 8.0916564,7.0581538 V 7.2168822 H 7.9011815 V 5.7036655 H 8.0916564 V 6.289199 C 8.148089,6.1657486 8.2962401,6.0916691 8.4796599,6.0916691 c 0.3421496,0 0.5044069,0.2680766 0.5044069,0.5925887 0,0.3104044 -0.1516747,0.5643709 -0.5008793,0.5643709 -0.1834199,0 -0.3421483,-0.070551 -0.3915311,-0.1904749 M 8.7900643,6.6595663 c 0,-0.162256 -0.056432,-0.4021138 -0.3597859,-0.4021138 -0.3033493,0 -0.3668409,0.2398578 -0.3668409,0.4091689 0,0.1728386 0.067018,0.4162225 0.3597859,0.4162225 0.2998218,0 0.3668409,-0.2433839 0.3668409,-0.4232776"
       id="path108"
       style="fill:#ffffff;stroke-width:0.352731" />
    <path
       class="st0"
       d="m 9.2274507,5.8306488 c 0,-0.070551 0.056432,-0.1269833 0.1305161,-0.1269833 0.070551,0 0.1269833,0.056433 0.1269833,0.1269833 0,0.070551 -0.056433,0.1305028 -0.1269833,0.1305028 -0.07407,0 -0.1305161,-0.059965 -0.1305161,-0.1305028 M 9.262726,6.1234155 H 9.4532009 V 7.2204097 H 9.2627234 Z"
       id="path110"
       style="fill:#ffffff;stroke-width:0.352731" />
    <rect
       x="9.7600698"
       y="5.7036672"
       class="st0"
       width="0.1904749"
       height="1.5132171"
       id="rect112"
       style="fill:#ffffff;stroke-width:0.352731" />
    <path
       class="st0"
       d="m 10.22568,5.8306488 c 0,-0.070551 0.05643,-0.1269833 0.130517,-0.1269833 0.07055,0 0.126983,0.056433 0.126983,0.1269833 0,0.070551 -0.05643,0.1305028 -0.126983,0.1305028 -0.07407,0 -0.130517,-0.059965 -0.130517,-0.1305028 m 0.03174,0.2927667 h 0.190475 V 7.2204097 H 10.25742 Z"
       id="path114"
       style="fill:#ffffff;stroke-width:0.352731" />
    <path
       class="st0"
       d="M 10.821797,6.83946 V 6.2680352 H 10.670122 V 6.119888 h 0.151675 V 5.8377025 h 0.194002 V 6.119888 h 0.239856 v 0.1481472 h -0.243384 v 0.4691329 c 0,0.2539665 0.01411,0.3209857 0.116398,0.3209857 0.04233,0 0.09171,-0.014105 0.130517,-0.028223 v 0.1587284 c -0.04233,0.02469 -0.102294,0.042328 -0.169311,0.042328 -0.201057,0.00347 -0.268076,-0.1269832 -0.268076,-0.391531"
       id="path116"
       style="fill:#ffffff;stroke-width:0.352731" />
    <path
       class="st0"
       d="m 11.629551,7.5025952 h 0.130503 c 0.06702,0 0.08114,-0.052913 0.123464,-0.1552022 l 0.02469,-0.059965 -0.504406,-1.1640134 h 0.186948 l 0.405641,0.9312107 0.363313,-0.9312107 h 0.186948 l -0.433859,1.111103 -0.05643,0.1516747 c -0.06702,0.1728385 -0.1552,0.2786579 -0.27513,0.2786579 H 11.62956"
       id="path118"
       style="fill:#ffffff;stroke-width:0.352731" />
    <polyline
       class="st0"
       points="364.47,141.91 365,141.91 367.72,145.4 367.72,141.91 368.25,141.91 368.25,146.2 367.72,146.2   365,142.71 365,146.2 364.47,146.2 "
       id="polyline120"
       style="fill:#ffffff"
       transform="matrix(0.35273128,0,0,0.35273128,-115.10327,-44.352431)" />
    <path
       class="st0"
       d="m 15.043989,6.8782602 c 0,-0.2857117 0.261022,-0.3738949 0.50088,-0.3738949 0.176364,0 0.317458,0.045861 0.384476,0.09876 0,-0.2116411 -0.08112,-0.3456795 -0.335095,-0.3456795 -0.201056,0 -0.303348,0.088188 -0.303348,0.19753 h -0.190475 c 0,-0.2292751 0.204584,-0.3597859 0.511459,-0.3597859 0.38095,0 0.511461,0.2081112 0.511461,0.5573183 V 7.2204056 H 15.932872 V 7.0581497 C 15.872907,7.1710281 15.770616,7.2521508 15.534286,7.2521508 15.255628,7.2486846 15.043989,7.1392723 15.043989,6.878256 m 0.881829,0 V 6.7442177 c -0.0776,-0.045847 -0.211638,-0.084656 -0.366841,-0.084656 -0.162256,0 -0.320985,0.042328 -0.320985,0.1904749 0,0.169311 0.194002,0.2328026 0.338622,0.2328026 0.155202,0.00347 0.296294,-0.067018 0.349204,-0.2045837"
       id="path122"
       style="fill:#ffffff;stroke-width:0.352731" />
    <polyline
       class="st0"
       points="372.46,143.1 373.02,143.1 374.08,145.75 375.14,143.1 375.69,143.1 374.44,146.2 373.71,146.2 "
       id="polyline124"
       style="fill:#ffffff"
       transform="matrix(0.35273128,0,0,0.35273128,-115.10327,-44.352431)" />
    <path
       class="st0"
       d="m 17.615401,5.8306488 c 0,-0.070551 0.05643,-0.1269833 0.130516,-0.1269833 0.07055,0 0.126983,0.056433 0.126983,0.1269833 0,0.070551 -0.05643,0.1305028 -0.126983,0.1305028 -0.07055,0 -0.130516,-0.059965 -0.130516,-0.1305028 m 0.03528,0.2927667 h 0.190475 v 1.0969942 h -0.190475 z"
       id="path126"
       style="fill:#ffffff;stroke-width:0.352731" />
    <path
       class="st0"
       d="m 18.20799,7.3509205 h 0.204581 c 0,0.1305162 0.141101,0.1940025 0.299827,0.1940025 0.186948,0 0.299814,-0.088188 0.299814,-0.3033494 V 7.06168 c -0.04933,0.1234504 -0.215159,0.1869487 -0.391522,0.1869487 -0.35274,0 -0.500883,-0.2574941 -0.500883,-0.5678985 0,-0.3209845 0.158728,-0.5890611 0.504402,-0.5890611 0.186949,0 0.335103,0.077603 0.388003,0.1975299 V 6.119888 h 0.190481 v 1.1216856 c 0,0.3421496 -0.250447,0.4832417 -0.504413,0.4832417 -0.239849,0 -0.49029,-0.1199309 -0.49029,-0.3738948 m 0.821859,-0.6842991 c 0,-0.1728387 -0.06706,-0.4091689 -0.366831,-0.4091689 -0.30336,0 -0.359793,0.2398578 -0.359793,0.4021138 0,0.1798937 0.07052,0.4232776 0.366845,0.4232776 0.296294,0 0.359779,-0.2433839 0.359779,-0.4162225"
       id="path128"
       style="fill:#ffffff;stroke-width:0.352731" />
    <path
       class="st0"
       d="m 19.442555,6.8782602 c 0,-0.2857117 0.261019,-0.3738949 0.500867,-0.3738949 0.176377,0 0.317465,0.045861 0.384483,0.09876 0,-0.2116411 -0.08119,-0.3456795 -0.335089,-0.3456795 -0.201067,0 -0.30336,0.088188 -0.30336,0.19753 h -0.190469 c 0,-0.2292751 0.204587,-0.3597859 0.511453,-0.3597859 0.38095,0 0.511466,0.2081112 0.511466,0.5573183 V 7.2204056 H 20.331438 V 7.0581497 C 20.271446,7.1710281 20.169179,7.2521508 19.93285,7.2521508 19.654194,7.2486846 19.442555,7.1392723 19.442555,6.878256 m 0.881817,0 V 6.7442177 c -0.07759,-0.045847 -0.211639,-0.084656 -0.366832,-0.084656 -0.162258,0 -0.320984,0.042328 -0.320984,0.1904749 0,0.169311 0.194001,0.2328026 0.338622,0.2328026 0.155193,0.00347 0.299814,-0.067018 0.349194,-0.2045837"
       id="path130"
       style="fill:#ffffff;stroke-width:0.352731" />
    <path
       class="st0"
       d="M 20.856995,6.83946 V 6.2680352 H 20.705322 V 6.119888 h 0.151673 V 5.8377025 h 0.194014 V 6.119888 h 0.239849 v 0.1481472 h -0.243381 v 0.4691329 c 0,0.2539665 0.01413,0.3209857 0.112918,0.3209857 0.04586,0 0.09172,-0.014105 0.130516,-0.028223 v 0.1587284 c -0.04226,0.02469 -0.102253,0.042328 -0.17283,0.042328 -0.194001,0.00347 -0.261033,-0.1269832 -0.261033,-0.391531"
       id="path132"
       style="fill:#ffffff;stroke-width:0.352731" />
    <path
       class="st0"
       d="m 21.484859,6.6630939 c 0,-0.2398565 0.105853,-0.5678973 0.543208,-0.5678973 0.437383,0 0.543209,0.3280408 0.543209,0.5678973 0,0.2610216 -0.126917,0.589061 -0.543209,0.589061 -0.416225,-0.00347 -0.543208,-0.331567 -0.543208,-0.589061 m 0.88183,-0.00707 c 0,-0.1552023 -0.0388,-0.3985876 -0.342141,-0.3985876 -0.30336,0 -0.342155,0.2469128 -0.342155,0.3985876 0,0.1869474 0.05999,0.4268038 0.342155,0.4268038 0.285709,0 0.342141,-0.2363289 0.342141,-0.4268038"
       id="path134"
       style="fill:#ffffff;stroke-width:0.352731" />
    <path
       class="st0"
       d="m 22.811137,6.1234155 h 0.190469 v 0.2116388 c 0,-0.031743 0.07052,-0.2292751 0.271604,-0.2292751 0.06706,0 0.126916,0.021171 0.155206,0.038795 v 0.1869473 c -0.03533,-0.028223 -0.09519,-0.052913 -0.162259,-0.052913 -0.176363,0 -0.268071,0.1904749 -0.268071,0.3703687 v 0.5678971 h -0.190481"
       id="path136"
       style="fill:#ffffff;stroke-width:0.352731" />
    <path
       class="st0"
       d="m 8.3350403,42.571138 h 0.366841 l 0.8465551,2.017623 H 9.2874148 L 9.0369758,43.982064 H 8.0034734 l -0.250439,0.606697 H 7.4920128 m 1.4461987,-0.843027 -0.41975,-0.987649 -0.41975,0.987649 z"
       id="path138"
       style="fill:#ffffff;stroke-width:0.352731" />
    <rect
       x="9.7318554"
       y="42.571136"
       class="st0"
       width="0.25396654"
       height="2.0176229"
       id="rect140"
       style="fill:#ffffff;stroke-width:0.352731" />
    <path
       class="st0"
       d="m 10.384409,44.084356 v -0.7619 h -0.201056 v -0.19753 h 0.201056 v -0.373894 h 0.257494 v 0.373894 h 0.320986 v 0.19753 h -0.324514 v 0.627861 c 0,0.338622 0.02117,0.426806 0.151675,0.426806 0.05997,0 0.119931,-0.01764 0.176366,-0.03528 v 0.215166 c -0.05643,0.03528 -0.137566,0.05291 -0.229275,0.05291 -0.261022,0 -0.352732,-0.172838 -0.352732,-0.525569"
       id="path142"
       style="fill:#ffffff;stroke-width:0.352731" />
    <path
       class="st0"
       d="m 11.220383,42.740449 c 0,-0.09171 0.0776,-0.169311 0.172838,-0.169311 0.09171,0 0.169311,0.0776 0.169311,0.169311 0,0.09171 -0.0776,0.172838 -0.169311,0.172838 -0.09524,-0.0035 -0.172838,-0.08112 -0.172838,-0.172838 m 0.04586,0.384477 h 0.253967 v 1.460308 h -0.253967 z"
       id="path144"
       style="fill:#ffffff;stroke-width:0.352731" />
    <path
       class="st0"
       d="m 11.957591,44.084356 v -0.7619 h -0.201056 v -0.19753 h 0.201056 v -0.373894 h 0.257494 v 0.373894 h 0.320986 v 0.19753 h -0.324514 v 0.627861 c 0,0.338622 0.02117,0.426806 0.151675,0.426806 0.05997,0 0.119931,-0.01764 0.176366,-0.03528 v 0.215166 c -0.05643,0.03528 -0.137566,0.05291 -0.229276,0.05291 -0.261021,0 -0.352731,-0.172838 -0.352731,-0.525569"
       id="path146"
       style="fill:#ffffff;stroke-width:0.352731" />
    <path
       class="st0"
       d="m 12.779454,43.883298 v -0.758372 h 0.253967 v 0.758372 c 0,0.345677 0.08819,0.518516 0.34215,0.52557 0.229275,-0.0071 0.356258,-0.162256 0.356258,-0.451495 v -0.832447 h 0.253966 v 1.460308 h -0.253966 v -0.271603 c -0.02822,0.105813 -0.162256,0.306875 -0.416223,0.31393 -0.335094,-0.0071 -0.536152,-0.194002 -0.536152,-0.744263"
       id="path148"
       style="fill:#ffffff;stroke-width:0.352731" />
    <path
       class="st0"
       d="m 14.253872,43.862134 c 0,-0.412695 0.190475,-0.776008 0.666662,-0.776008 0.253966,0 0.451496,0.102293 0.525569,0.264548 V 42.56761 h 0.253966 v 2.017624 h -0.253966 v -0.211639 c -0.06702,0.162256 -0.27513,0.253966 -0.522042,0.253966 -0.476188,0 -0.670189,-0.342149 -0.670189,-0.765427 m 1.216922,-0.01053 c 0,-0.225748 -0.08465,-0.546733 -0.486769,-0.546733 -0.405641,0 -0.483241,0.320985 -0.483241,0.536151 0,0.239858 0.09171,0.567897 0.486769,0.567897 0.395058,0 0.483241,-0.328039 0.483241,-0.557315"
       id="path150"
       style="fill:#ffffff;stroke-width:0.352731" />
    <path
       class="st0"
       d="m 15.968146,43.844498 c 0,-0.324513 0.141092,-0.758372 0.708989,-0.758372 0.462078,0 0.701936,0.289239 0.701936,0.687825 v 0.162258 h -1.139322 c 0,0.215166 0.105813,0.469131 0.444441,0.469131 0.261021,0 0.391531,-0.148147 0.437387,-0.328039 h 0.264549 c -0.06349,0.285711 -0.268077,0.546733 -0.701936,0.546733 -0.560843,0.0035 -0.716044,-0.437386 -0.716044,-0.779536 m 1.142849,-0.126983 c 0,-0.23633 -0.151674,-0.412695 -0.430332,-0.412695 -0.331567,0 -0.437386,0.246911 -0.437386,0.412695 z"
       id="path152"
       style="fill:#ffffff;stroke-width:0.352731" />
    <path
       class="st2"
       d="M 22.41255,118.66938 H 2.6631213 c -0.9770645,0 -1.76718305,0.75132 -1.76718305,1.67901 0,0.92768 0.79011855,1.67899 1.76718305,1.67899 H 22.41255 c 0.977058,0 1.76718,-0.75131 1.76718,-1.67899 0.004,-0.92769 -0.790122,-1.67901 -1.76718,-1.67901 z"
       id="path160"
       style="fill:none;stroke:#ffffff;stroke-width:0.264548;stroke-miterlimit:10" />
    <polyline
       class="st0"
       points="336.43,465.86 334.11,465.86 334.11,466.83 336.27,466.83 336.27,467.57 334.11,467.57 334.11,469.4   333.43,469.4 333.43,465.12 336.43,465.12 "
       id="polyline162"
       style="fill:#ffffff"
       transform="matrix(0.35273128,0,0,0.35273128,-115.10327,-44.352431)" />
    <polyline
       class="st0"
       points="340.73,465.86 339.26,465.86 339.26,468.66 340.73,468.66 340.73,469.4 337.11,469.4 337.11,468.66   338.58,468.66 338.58,465.86 337.11,465.86 337.11,465.12 340.73,465.12 "
       id="polyline164"
       style="fill:#ffffff"
       transform="matrix(0.35273128,0,0,0.35273128,-115.10327,-44.352431)" />
    <polyline
       class="st0"
       points="344.76,469.4 344.08,469.4 342.09,466.35 342.09,469.4 341.41,469.4 341.41,465.12 342.09,465.12   344.08,468.17 344.08,465.12 344.76,465.12 "
       id="polyline166"
       style="fill:#ffffff"
       transform="matrix(0.35273128,0,0,0.35273128,-115.10327,-44.352431)" />
    <path
       class="st0"
       d="M 7.3579758,119.70994 H 6.7442233 v 1.50969 h 0.2398564 v -0.004 l 0.3738961,0.004 c 0.4867691,0 0.6666614,-0.32805 0.6666614,-0.75484 0,-0.42681 -0.1798923,-0.75485 -0.6666614,-0.75485 m 0.02469,1.24868 H 7.0122987 v -0.98413 h 0.3703672 c 0.3350958,0 0.4303326,0.25044 0.4303326,0.4903 0,0.23986 -0.1340384,0.49383 -0.4303326,0.49383"
       id="path168"
       style="fill:#ffffff;stroke-width:0.352731" />
    <polyline
       class="st0"
       points="354.72,469.4 354.04,469.4 352.06,466.35 352.06,469.4 351.38,469.4 351.38,465.12 352.06,465.12   354.04,468.17 354.04,465.12 354.72,465.12 "
       id="polyline170"
       style="fill:#ffffff"
       transform="matrix(0.35273128,0,0,0.35273128,-115.10327,-44.352431)" />
    <polyline
       class="st0"
       points="358.52,469.4 355.41,469.4 355.41,465.12 358.41,465.12 358.41,465.86 356.09,465.86 356.09,466.83   358.25,466.83 358.25,467.57 356.09,467.57 356.09,468.66 358.52,468.66 "
       id="polyline172"
       style="fill:#ffffff"
       transform="matrix(0.35273128,0,0,0.35273128,-115.10327,-44.352431)" />
    <polyline
       class="st0"
       points="363.68,469.4 362.83,469.4 361.79,465.84 360.74,469.4 359.89,469.4 358.94,465.12 359.7,465.12   360.31,468.49 361.26,465.12 362.31,465.12 363.26,468.49 363.87,465.12 364.63,465.12 "
       id="polyline174"
       style="fill:#ffffff"
       transform="matrix(0.35273128,0,0,0.35273128,-115.10327,-44.352431)" />
    <path
       class="st0"
       d="m 15.463739,121.01152 v -0.19401 c 0,-0.2857 -0.172837,-0.32803 -0.225747,-0.32803 v -0.004 c 0.137566,-0.0283 0.253966,-0.13756 0.253966,-0.34568 0,-0.23279 -0.137564,-0.42679 -0.479714,-0.42679 h -0.754846 v 1.50968 h 0.239858 v -0.59964 h 0.43386 c 0.123451,0 0.275131,0.0247 0.275131,0.19753 v 0.194 c 0,0.14814 0.03528,0.20811 0.03879,0.20811 h 0.253967 c 0.0035,-0.004 -0.03528,-0.0459 -0.03528,-0.21164 m -0.458551,-0.64902 h -0.51146 v -0.39154 h 0.51146 c 0.165784,0 0.250439,0.0988 0.250439,0.194 -0.0035,0.10226 -0.08465,0.19754 -0.250439,0.19754"
       id="path176"
       style="fill:#ffffff;stroke-width:0.352731" />
    <path
       class="st0"
       d="m 16.331458,119.6782 c -0.514987,0.004 -0.64197,0.43738 -0.64197,0.77954 0,0.34214 0.155201,0.79364 0.64197,0.79364 0.486769,0 0.641972,-0.45502 0.641972,-0.79364 0,-0.34216 -0.126984,-0.77954 -0.641972,-0.77954 m -0.01764,1.30157 c -0.28924,-0.004 -0.388004,-0.34215 -0.388004,-0.52203 0,-0.18695 0.07055,-0.51147 0.388004,-0.51147 0.317458,0 0.388004,0.32452 0.388004,0.51147 0,0.17988 -0.09876,0.52557 -0.388004,0.52203"
       id="path178"
       style="fill:#ffffff;stroke-width:0.352731" />
    <path
       class="st0"
       d="m 17.767076,121.25138 c -0.35626,0 -0.57848,-0.18342 -0.57848,-0.69135 v -0.85009 h 0.239858 v 0.87125 c 0,0.31393 0.186947,0.40212 0.338622,0.40212 0.151673,0 0.342148,-0.0883 0.342148,-0.40212 v -0.87125 h 0.236329 l 0.004,0.85009 c 0,0.50793 -0.222224,0.69135 -0.58201,0.69135"
       id="path180"
       style="fill:#ffffff;stroke-width:0.352731" />
    <polyline
       class="st0"
       points="382.47,465.86 381.01,465.86 381.01,469.4 380.33,469.4 380.33,465.86 378.86,465.86 378.86,465.12   382.47,465.12 "
       id="polyline182"
       style="fill:#ffffff"
       transform="matrix(0.35273128,0,0,0.35273128,-115.10327,-44.352431)" />
    <polyline
       class="st0"
       points="386.11,469.4 383,469.4 383,465.12 386,465.12 386,465.86 383.68,465.86 383.68,466.83 385.84,466.83   385.84,467.57 383.68,467.57 383.68,468.66 386.11,468.66 "
       id="polyline184"
       style="fill:#ffffff"
       transform="matrix(0.35273128,0,0,0.35273128,-115.10327,-44.352431)" />
    <path
       class="st0"
       d="m 21.996325,121.25138 c -0.345675,0 -0.701934,-0.11292 -0.701934,-0.56437 h 0.257486 c 0,0.25044 0.268084,0.2963 0.444448,0.2963 0.186949,0 0.285709,-0.0988 0.285709,-0.19049 0,-0.13051 -0.218691,-0.17283 -0.345675,-0.20458 -0.275137,-0.0635 -0.582003,-0.12705 -0.582003,-0.46913 0,-0.32451 0.275124,-0.44445 0.589056,-0.44445 0.335102,0 0.613759,0.16932 0.613759,0.60318 h -0.257499 c 0,-0.22928 -0.194002,-0.33509 -0.35626,-0.33509 -0.144621,0 -0.335089,0.0388 -0.335089,0.16578 0,0.12345 0.19752,0.16578 0.349194,0.19753 0.292774,0.0635 0.617292,0.12705 0.617292,0.47266 -0.004,0.28571 -0.18343,0.47266 -0.578484,0.47266"
       id="path186"
       style="fill:#ffffff;stroke-width:0.352731" />
    <path
       class="st2"
       d="M 14.140998,46.137252 H 3.065235 c -0.8500813,0 -1.537908,0.751317 -1.537908,1.679 0,0.927683 0.6878267,1.679001 1.537908,1.679001 h 11.075763 c 0.850082,0 1.537908,-0.751318 1.537908,-1.679001 -0.0035,-0.927683 -0.691353,-1.679 -1.537908,-1.679 z"
       id="path188"
       style="fill:none;stroke:#ffffff;stroke-width:0.264548;stroke-miterlimit:10" />
    <path
       class="st0"
       d="m 3.26982,48.719245 c -0.4091687,0 -0.8289187,-0.112879 -0.8289187,-0.564371 h 0.3033493 c 0,0.250439 0.3174582,0.296294 0.5255694,0.296294 0.22222,0 0.3350945,-0.09876 0.3350945,-0.190475 0,-0.130516 -0.2574941,-0.172838 -0.4091687,-0.204583 -0.3245119,-0.0635 -0.6878254,-0.126984 -0.6878254,-0.469133 0,-0.324513 0.3245119,-0.444442 0.698408,-0.444442 0.3950586,0 0.7266255,0.169311 0.7266255,0.603171 h -0.303348 c 0,-0.229276 -0.2292751,-0.335095 -0.41975,-0.335095 -0.169311,0 -0.3950599,0.03881 -0.3950599,0.165784 0,0.123451 0.2328026,0.165784 0.4126962,0.197529 0.3492033,0.06349 0.7301531,0.126983 0.7301531,0.47266 -0.00707,0.285712 -0.22222,0.472661 -0.6878253,0.472661"
       id="path190"
       style="fill:#ffffff;stroke-width:0.352731" />
    <polyline
       class="st0"
       points="342.1,260.23 340.37,260.23 340.37,263.77 339.56,263.77 339.56,260.23 337.83,260.23 337.83,259.49   342.1,259.49 "
       id="polyline192"
       style="fill:#ffffff"
       transform="matrix(0.35273128,0,0,0.35273128,-115.10327,-44.352431)" />
    <polyline
       class="st0"
       points="346.63,263.77 342.58,263.77 342.58,263 345.43,260.26 342.58,260.26 342.58,259.49 346.51,259.49   346.51,260.26 343.65,263 346.63,263 "
       id="polyline194"
       style="fill:#ffffff"
       transform="matrix(0.35273128,0,0,0.35273128,-115.10327,-44.352431)" />
    <polyline
       class="st0"
       points="351.72,260.23 349.98,260.23 349.98,263.03 351.72,263.03 351.72,263.77 347.45,263.77 347.45,263.03   349.18,263.03 349.18,260.23 347.45,260.23 347.45,259.49 351.72,259.49 "
       id="polyline196"
       style="fill:#ffffff"
       transform="matrix(0.35273128,0,0,0.35273128,-115.10327,-44.352431)" />
    <path
       class="st0"
       d="M 11.777699,47.177808 H 10.98758 v 1.50969 h 0.285712 v -0.638444 l 0.507933,0.0035 c 0.398587,0.0035 0.610226,-0.123451 0.610226,-0.433859 -0.0035,-0.261022 -0.165785,-0.440915 -0.613752,-0.440915 m 0.04233,0.610226 h -0.550261 v -0.352732 h 0.550261 c 0.176365,0 0.289239,0.06702 0.289239,0.176366 0,0.109345 -0.112878,0.176366 -0.289239,0.176366"
       id="path198"
       style="fill:#ffffff;stroke-width:0.352731" />
    <path
       class="st0"
       d="m 13.241532,47.177808 h -0.289239 l -0.666661,1.50969 h 0.296294 l 0.197528,-0.412695 h 0.634917 l 0.19753,0.412695 h 0.296294 m -1.040557,-0.673716 0.229275,-0.567897 0.229275,0.567897 z"
       id="path200"
       style="fill:#ffffff;stroke-width:0.352731" />
    <path
       class="st0"
       d="m 10.264481,47.512904 v 0 c 0.0071,0.0035 0.0141,0.0071 0.02116,0.01411 -0.0071,-0.0071 -0.01764,-0.0071 -0.02116,-0.01411"
       id="path202"
       style="fill:#ffffff;stroke-width:0.352731" />
    <path
       class="st0"
       d="m 10.310336,47.558758 c 0.0035,0.0035 0.0071,0.0071 0.01053,0.01411 -0.0035,-0.0071 -0.0071,-0.01053 -0.01053,-0.01411"
       id="path204"
       style="fill:#ffffff;stroke-width:0.352731" />
    <path
       class="st0"
       d="m 10.165716,47.452938 c 0.0035,0 0.0035,0.0035 0.0035,0.0035 0.03528,0.0141 0.06349,0.03528 0.09171,0.05997 -0.02469,-0.02822 -0.05643,-0.04938 -0.09524,-0.06349"
       id="path206"
       style="fill:#ffffff;stroke-width:0.352731" />
    <path
       class="st0"
       d="m 10.398519,47.717488 c -0.01053,-0.03174 -0.02469,-0.06349 -0.04233,-0.09524 0.0141,0.03174 0.03174,0.06349 0.04233,0.09524 0,0 0,0 0,0"
       id="path208"
       style="fill:#ffffff;stroke-width:0.352731" />
    <path
       class="st0"
       d="m 10.320917,47.572868 v 0 c -0.0035,-0.0035 -0.0071,-0.0071 -0.01053,-0.01411 0.0035,0.0035 0.0071,0.0071 0.01053,0.01411"
       id="path210"
       style="fill:#ffffff;stroke-width:0.352731" />
    <path
       class="st0"
       d="m 10.306808,47.555232 c -0.0035,-0.0035 -0.0035,-0.0071 -0.0071,-0.01053 -0.0071,-0.0071 -0.01053,-0.01411 -0.01764,-0.02117 -0.0035,-0.0035 -0.0141,-0.0071 -0.02116,-0.01411 0.01764,0.01764 0.03527,0.03174 0.04586,0.04586 0.0035,0.0035 0.0035,0.0035 0,0"
       id="path212"
       style="fill:#ffffff;stroke-width:0.352731" />
    <path
       class="st0"
       d="m 10.356191,47.622249 c -0.0035,-0.0071 -0.0071,-0.0141 -0.01053,-0.02116 0,0 0,0 0,0 -0.0071,-0.01053 -0.0141,-0.01764 -0.02469,-0.02822 0.01411,0.01411 0.02469,0.03174 0.03528,0.04938"
       id="path214"
       style="fill:#ffffff;stroke-width:0.352731" />
    <path
       class="st0"
       d="m 10.398519,47.71396 c 0,0 0,0 0,0 -0.01053,-0.02822 -0.02469,-0.05996 -0.04233,-0.09171 0.0141,0.02822 0.03174,0.05997 0.04233,0.09171"
       id="path216"
       style="fill:#ffffff;stroke-width:0.352731" />
    <path
       class="st0"
       d="m 10.405573,47.738651 c 0,0 0,0 0,0 0.01053,0.03528 0.01764,0.07055 0.02116,0.105813 -0.0035,-0.03527 -0.01053,-0.07055 -0.02116,-0.105813"
       id="path218"
       style="fill:#ffffff;stroke-width:0.352731" />
    <path
       class="st0"
       d="m 10.433792,47.922071 c 0,0.0035 0,0.0035 0,0.0071 v 0 c 0,-0.0035 0,-0.0071 0,-0.0071"
       id="path220"
       style="fill:#ffffff;stroke-width:0.352731" />
    <path
       class="st0"
       d="m 10.426737,47.840943 v 0 c -0.0035,-0.03174 -0.01053,-0.06702 -0.02116,-0.102293 0,0 0,0 0,0.0035 0.01053,0.03174 0.01764,0.06702 0.02116,0.09876"
       id="path222"
       style="fill:#ffffff;stroke-width:0.352731" />
    <path
       class="st0"
       d="m 10.433792,47.922071 c 0,-0.0035 0,-0.01053 0,-0.01411 0,-0.01764 0,-0.03527 -0.0035,-0.05291 0,-0.0035 -0.0035,-0.0071 -0.0035,-0.01053 0.0035,0.02469 0.0071,0.05291 0.0071,0.0776"
       id="path224"
       style="fill:#ffffff;stroke-width:0.352731" />
    <path
       class="st0"
       d="m 9.9717139,47.414138 c 0.063498,0 0.1163981,0.01053 0.1622561,0.02822 h 0.0035 c 0,0 0.0035,0 0.0035,0 -0.04938,-0.01764 -0.102293,-0.03174 -0.1693107,-0.02822 -0.3774223,0 -0.4620778,0.324513 -0.4620778,0.514988 0,0.04586 0.00707,0.09876 0.02469,0.158729 -0.014105,-0.05643 -0.02469,-0.112879 -0.02469,-0.155201 0.00347,-0.194003 0.084656,-0.518516 0.4620778,-0.518516"
       id="path226"
       style="fill:#ffffff;stroke-width:0.352731" />
    <polyline
       class="st0"
       points="355.07,260.24 355.07,260.24 355.07,260.24 355.07,260.24 "
       id="polyline228"
       style="fill:#ffffff"
       transform="matrix(0.35273128,0,0,0.35273128,-115.10327,-44.352431)" />
    <path
       class="st0"
       d="m 10.433792,47.904435 c 0,-0.01764 0,-0.03527 -0.0035,-0.05291 0.0035,0.02822 0.0035,0.05291 0.0035,0.0776 0,-0.0071 0,-0.01764 0,-0.02469"
       id="path230"
       style="fill:#ffffff;stroke-width:0.352731" />
    <path
       class="st0"
       d="m 10.169244,47.452938 c -0.0035,0 -0.0035,-0.0035 -0.0035,-0.0035 v 0 c 0.0035,0.0035 0.0035,0.0035 0.0035,0.0035"
       id="path232"
       style="fill:#ffffff;stroke-width:0.352731" />
    <polyline
       class="st0"
       points="355.06,260.24 355.06,260.24 355.07,260.24 "
       id="polyline234"
       style="fill:#ffffff"
       transform="matrix(0.35273128,0,0,0.35273128,-115.10327,-44.352431)" />
    <path
       class="st0"
       d="m 10.165716,47.452938 c -0.0071,-0.0035 -0.01764,-0.0071 -0.02469,-0.01053 0,0 -0.0035,0 -0.0035,0 0,0 -0.0035,0 -0.0035,0 0.01053,0.0035 0.02469,0.0071 0.03528,0.01411 0,-0.0035 0,-0.0035 -0.0035,-0.0035"
       id="path236"
       style="fill:#ffffff;stroke-width:0.352731" />
    <polyline
       class="st0"
       points="355.65,260.69 355.65,260.69 355.65,260.69 355.65,260.69 "
       id="polyline238"
       style="fill:#ffffff"
       transform="matrix(0.35273128,0,0,0.35273128,-115.10327,-44.352431)" />
    <path
       class="st0"
       d="m 10.299753,47.548177 c -0.0071,-0.0071 -0.01053,-0.01411 -0.01764,-0.02117 0.01053,0.01053 0.01764,0.02117 0.02469,0.03174 0,-0.0035 -0.0035,-0.0071 -0.0071,-0.01053"
       id="path240"
       style="fill:#ffffff;stroke-width:0.352731" />
    <polyline
       class="st0"
       points="355.82,261.08 355.82,261.08 355.82,261.08 355.82,261.08 "
       id="polyline242"
       style="fill:#ffffff"
       transform="matrix(0.35273128,0,0,0.35273128,-115.10327,-44.352431)" />
    <polyline
       class="st0"
       points="355.8,261.02 355.8,261.02 355.8,261.02 "
       id="polyline244"
       style="fill:#ffffff"
       transform="matrix(0.35273128,0,0,0.35273128,-115.10327,-44.352431)" />
    <path
       class="st0"
       d="m 10.405573,47.742179 c 0,0 0,-0.0035 0,0 0,-0.0035 0,-0.0035 0,-0.0035 -0.0035,-0.0071 -0.0035,-0.0141 -0.0071,-0.02116 0,0 0,-0.0035 0,-0.0035 0,0.01053 0.0035,0.01764 0.0071,0.02822"
       id="path246"
       style="fill:#ffffff;stroke-width:0.352731" />
    <path
       class="st0"
       d="m 9.9717139,47.146063 c -0.6102249,0.0035 -0.758372,0.437386 -0.758372,0.779536 0,0.342149 0.1834198,0.793646 0.758372,0.793646 0.5784801,0 0.7583721,-0.455024 0.7583721,-0.793646 0.0035,-0.34215 -0.148147,-0.779536 -0.7583721,-0.779536 m 0.4620781,0.783063 v 0 c 0,0.179893 -0.116398,0.52557 -0.4620781,0.522042 -0.010532,0 -0.017638,-0.0035 -0.028223,-0.0035 -0.028223,0 -0.052913,-0.0035 -0.077603,-0.01053 -0.014105,-0.0035 -0.028223,-0.0071 -0.038795,-0.01411 -0.017638,-0.0071 -0.035275,-0.01411 -0.052913,-0.02117 -0.010532,-0.0071 -0.02469,-0.01053 -0.035275,-0.01764 -0.017638,-0.01411 -0.035275,-0.02469 -0.052913,-0.04233 -0.010532,-0.0071 -0.017638,-0.01764 -0.028223,-0.02469 -0.014105,-0.01764 -0.028223,-0.03527 -0.042328,-0.05291 -0.00707,-0.01053 -0.014105,-0.01764 -0.017638,-0.02822 -0.010532,-0.01764 -0.017638,-0.03174 -0.028223,-0.04938 -0.00347,-0.01053 -0.010532,-0.01764 -0.014105,-0.02822 -0.010532,-0.02469 -0.017638,-0.04586 -0.02469,-0.07055 -0.017638,-0.05997 -0.02469,-0.116398 -0.02469,-0.162256 0,-0.186947 0.084656,-0.514988 0.4620777,-0.514988 0.1410924,0 0.2398584,0.04586 0.3104034,0.112879 0.0071,0.0071 0.01053,0.01411 0.01764,0.02117 0.0141,0.01764 0.03174,0.03528 0.04233,0.05291 0,0 0,0 0,0 0.04938,0.0776 0.07407,0.169311 0.08465,0.250439 0.0035,0.01764 0.0035,0.03528 0.0035,0.05291 0.0071,0.01053 0.0071,0.02116 0.0071,0.02822"
       id="path248"
       style="fill:#ffffff;stroke-width:0.352731" />
    <path
       class="st0"
       d="m 9.7424388,48.384149 c -0.017638,-0.01411 -0.035275,-0.02469 -0.052913,-0.04233 0.017638,0.01764 0.035275,0.02822 0.052913,0.04233"
       id="path250"
       style="fill:#ffffff;stroke-width:0.352731" />
    <path
       class="st0"
       d="m 10.433792,47.904435 c 0,0.0071 0,0.01411 0,0.02116 0,-0.0035 0,-0.01411 0,-0.02116"
       id="path252"
       style="fill:#ffffff;stroke-width:0.352731" />
    <path
       class="st0"
       d="m 9.8270943,48.422951 c -0.017638,-0.0071 -0.035275,-0.01411 -0.052913,-0.02117 0.017638,0.01053 0.035275,0.01764 0.052913,0.02117"
       id="path254"
       style="fill:#ffffff;stroke-width:0.352731" />
    <path
       class="st0"
       d="m 9.9470225,48.447641 c -0.028223,-0.0035 -0.052913,-0.0035 -0.077603,-0.01053 0.02469,0.0071 0.04938,0.0071 0.077603,0.01053"
       id="path256"
       style="fill:#ffffff;stroke-width:0.352731" />
    <path
       class="st0"
       d="m 10.345609,47.601086 c 0.04938,0.0776 0.07407,0.169311 0.08465,0.25044 -0.01053,-0.08114 -0.03527,-0.172839 -0.08465,-0.25044"
       id="path258"
       style="fill:#ffffff;stroke-width:0.352731" />
    <path
       class="st0"
       d="m 10.299753,47.548177 c 0.0141,0.01764 0.03174,0.03527 0.04233,0.05291 -0.01053,-0.02117 -0.02469,-0.0388 -0.04233,-0.05291"
       id="path260"
       style="fill:#ffffff;stroke-width:0.352731" />
    <path
       class="st0"
       d="m 9.9717139,47.414138 c 0.1410921,0 0.2398581,0.04586 0.3104031,0.112879 -0.06702,-0.06702 -0.169311,-0.112879 -0.3104031,-0.112879"
       id="path262"
       style="fill:#ffffff;stroke-width:0.352731" />
    <path
       class="st0"
       d="m 9.6013454,48.236002 c -0.010532,-0.01764 -0.017638,-0.03174 -0.028223,-0.04938 0.010532,0.01764 0.017638,0.03527 0.028223,0.04938"
       id="path264"
       style="fill:#ffffff;stroke-width:0.352731" />
    <path
       class="st0"
       d="m 9.5625452,48.158401 c -0.010532,-0.02469 -0.017638,-0.04586 -0.02469,-0.07055 0.00707,0.02469 0.014105,0.04938 0.02469,0.07055"
       id="path266"
       style="fill:#ffffff;stroke-width:0.352731" />
    <path
       class="st0"
       d="m 9.6613108,48.317131 c -0.014105,-0.01764 -0.031743,-0.03528 -0.042328,-0.05291 0.014105,0.01764 0.028223,0.03527 0.042328,0.05291"
       id="path268"
       style="fill:#ffffff;stroke-width:0.352731" />
    <path
       class="st0"
       d="m 3.3086202,28.638253 c 0.2716029,0 0.3809498,-0.165785 0.4162225,-0.239858 h 0.3104044 c -0.045861,0.190475 -0.2081126,0.507933 -0.7230993,0.507933 -0.4338602,0 -0.7583721,-0.303349 -0.7583721,-0.772482 0,-0.567897 0.3280394,-0.804227 0.7583721,-0.804227 0.3209856,0 0.6807716,0.148147 0.730153,0.532624 H 3.7354253 c -0.045861,-0.176364 -0.2469128,-0.264547 -0.4232775,-0.264547 -0.2292752,0 -0.4550241,0.148147 -0.4550241,0.53615 -0.00347,0.296295 0.2222214,0.504407 0.4514965,0.504407"
       id="path270"
       style="fill:#ffffff;stroke-width:0.352731" />
    <path
       class="st0"
       d="m 5.0228942,27.333147 c -0.6102248,0.0035 -0.7618995,0.437387 -0.7618995,0.779535 0,0.34215 0.1834198,0.797174 0.7618995,0.797174 0.5784798,0 0.7618996,-0.455024 0.7618996,-0.797174 0,-0.342148 -0.1516747,-0.779535 -0.7618996,-0.779535 m 0,1.305106 c -0.3456771,-0.0035 -0.4620777,-0.345677 -0.4620777,-0.522043 0,-0.186947 0.084656,-0.514987 0.4620777,-0.514987 0.3774223,0 0.4620778,0.32804 0.4620778,0.514987 0,0.176366 -0.116398,0.525569 -0.4620778,0.522043"
       id="path272"
       style="fill:#ffffff;stroke-width:0.352731" />
    <polyline
       class="st0"
       points="347.12,207.6 343.44,207.6 343.44,203.32 344.24,203.32 344.24,206.86 347.12,206.86 "
       id="polyline274"
       style="fill:#ffffff"
       transform="matrix(0.35273128,0,0,0.35273128,-115.10327,-44.352431)" />
    <polyline
       class="st0"
       points="351.62,207.6 347.94,207.6 347.94,203.32 348.74,203.32 348.74,206.86 351.62,206.86 "
       id="polyline276"
       style="fill:#ffffff"
       transform="matrix(0.35273128,0,0,0.35273128,-115.10327,-44.352431)" />
    <path
       class="st0"
       d="M 10.056369,27.364893 H 9.7671302 l -0.6666628,1.509689 h 0.2962943 l 0.19753,-0.412695 h 0.6349163 l 0.197529,0.412695 h 0.296294 m -1.0440838,-0.670189 0.2292751,-0.571425 0.2328027,0.571425 z"
       id="path278"
       style="fill:#ffffff;stroke-width:0.352731" />
    <path
       class="st0"
       d="m 11.964646,28.07741 v 0 c 0.155201,-0.01764 0.338622,-0.09524 0.338622,-0.338622 0,-0.250439 -0.15873,-0.370367 -0.638444,-0.370367 h -0.768955 v 1.509689 h 0.747791 c 0.613753,0 0.772481,-0.155201 0.772481,-0.444442 0,-0.331567 -0.285712,-0.352731 -0.451495,-0.356258 m -0.783064,-0.472661 0.483242,0.0035 c 0.243384,0 0.356258,0.05291 0.356258,0.162257 0,0.116398 -0.116398,0.190475 -0.380949,0.190475 h -0.462078 v -0.35626 z m 0.462078,1.008813 h -0.462078 v -0.39506 h 0.462078 c 0.331567,0 0.490297,0.04586 0.490297,0.190475 0,0.126983 -0.102293,0.204585 -0.490297,0.204585"
       id="path280"
       style="fill:#ffffff;stroke-width:0.352731" />
    <path
       class="st0"
       d="m 12.814728,28.906328 c -0.109345,0 -0.201057,-0.08112 -0.201057,-0.190474 0,-0.109346 0.08819,-0.186948 0.201057,-0.186948 0.109346,0 0.197529,0.0776 0.197529,0.186948 0,0.109345 -0.09171,0.190474 -0.197529,0.190474"
       id="path282"
       style="fill:#ffffff;stroke-width:0.352731" />
    <path
       class="st0"
       d="m 11.964646,28.07741 v 0 c 0.155201,-0.01764 0.338622,-0.09524 0.338622,-0.338622 0,-0.250439 -0.15873,-0.370367 -0.638444,-0.370367 h -0.768955 v 1.509689 h 0.747791 c 0.613753,0 0.772481,-0.155201 0.772481,-0.444442 0,-0.331567 -0.285712,-0.352731 -0.451495,-0.356258 m -0.783064,-0.472661 0.483242,0.0035 c 0.243384,0 0.356258,0.05291 0.356258,0.162257 0,0.116398 -0.116398,0.190475 -0.380949,0.190475 h -0.462078 v -0.35626 z m 0.462078,1.008813 h -0.462078 v -0.39506 h 0.462078 c 0.331567,0 0.490297,0.04586 0.490297,0.190475 0,0.126983 -0.102293,0.204585 -0.490297,0.204585"
       id="path284"
       style="fill:#ffffff;stroke-width:0.352731" />
    <path
       class="st2"
       d="M 14.140998,26.324336 H 3.065235 c -0.8500813,0 -1.537908,0.751316 -1.537908,1.679001 0,0.927683 0.6878267,1.679 1.537908,1.679 h 11.075763 c 0.850082,0 1.537908,-0.751317 1.537908,-1.679 -0.0035,-0.927685 -0.691353,-1.679001 -1.537908,-1.679001 z"
       id="path286"
       style="fill:none;stroke:#ffffff;stroke-width:0.264548;stroke-miterlimit:10" />
    <path
       class="st0"
       d="m 16.708882,71.35401 c -0.07055,0.03528 -0.211639,0.07055 -0.39506,0.07055 -0.423278,0 -0.740736,-0.268076 -0.740736,-0.758373 0,-0.469132 0.317458,-0.78659 0.783064,-0.78659 0.186947,0 0.303349,0.03879 0.356258,0.06702 l -0.04586,0.15873 c -0.07407,-0.03528 -0.176366,-0.06349 -0.303349,-0.06349 -0.349205,0 -0.582007,0.225747 -0.582007,0.61728 0,0.366839 0.211639,0.60317 0.574952,0.60317 0.116398,0 0.23633,-0.02469 0.313931,-0.0635"
       id="path288"
       style="fill:#ffffff;stroke-width:0.352731" />
    <rect
       x="17.079245"
       y="69.826691"
       class="st0"
       width="0.19752952"
       height="1.5767087"
       id="rect290"
       style="fill:#ffffff;stroke-width:0.352731" />
    <path
       class="st0"
       d="m 18.708865,70.856659 c 0,0.398587 -0.275124,0.571424 -0.536149,0.571424 -0.28924,0 -0.514987,-0.211638 -0.514987,-0.553787 0,-0.359786 0.23633,-0.571424 0.532624,-0.571424 0.310406,0 0.518512,0.225747 0.518512,0.553787 m -0.853608,0.01053 c 0,0.23633 0.134039,0.412695 0.328041,0.412695 0.186945,0 0.328046,-0.176365 0.328046,-0.416223 0,-0.18342 -0.09172,-0.412695 -0.320991,-0.412695 -0.23633,0 -0.335096,0.211639 -0.335096,0.416223"
       id="path292"
       style="fill:#ffffff;stroke-width:0.352731" />
    <path
       class="st0"
       d="m 19.855247,71.361066 c -0.05293,0.02822 -0.165791,0.06349 -0.310412,0.06349 -0.324504,0 -0.536143,-0.218694 -0.536143,-0.550261 0,-0.331569 0.225744,-0.571425 0.57847,-0.571425 0.116385,0 0.218705,0.02822 0.271605,0.05643 l -0.04586,0.151674 c -0.04586,-0.02822 -0.119984,-0.05291 -0.225757,-0.05291 -0.246901,0 -0.38095,0.183421 -0.38095,0.405641 0,0.250439 0.158739,0.402114 0.373898,0.402114 0.112918,0 0.183429,-0.02822 0.239861,-0.05291"
       id="path294"
       style="fill:#ffffff;stroke-width:0.352731" />
    <path
       class="st0"
       d="m 20.41256,70.821386 h 0.004 c 0.02826,-0.0388 0.06346,-0.08465 0.09519,-0.12345 l 0.313932,-0.370369 h 0.236329 l -0.416225,0.440915 0.472671,0.631389 h -0.236329 l -0.370378,-0.514988 -0.09879,0.112878 v 0.405642 h -0.194001 v -1.57671 h 0.194001"
       id="path296"
       style="fill:#ffffff;stroke-width:0.352731" />
    <path
       class="st0"
       d="m 4.2221945,69.928976 c 0.09876,-0.02116 0.2363301,-0.03174 0.3703671,-0.03174 0.2081113,0 0.3386221,0.03879 0.4338602,0.123451 0.077603,0.06702 0.116398,0.169311 0.116398,0.285711 0,0.19753 -0.1234504,0.328041 -0.2821842,0.38095 v 0.0071 c 0.116398,0.03879 0.1834199,0.144619 0.2186925,0.303349 0.04938,0.208111 0.084656,0.352731 0.116398,0.412695 H 4.9946686 c -0.02469,-0.04233 -0.056432,-0.169311 -0.09876,-0.356258 C 4.8500477,70.846085 4.7724579,70.772011 4.5960865,70.76143 H 4.4126694 v 0.649025 H 4.2186669 m 0.19753,-0.8007 h 0.1975286 c 0.2045851,0 0.338622,-0.112878 0.338622,-0.282185 0,-0.194001 -0.141092,-0.278657 -0.3456757,-0.282184 -0.095241,0 -0.1587298,0.01053 -0.1904749,0.01764 z"
       id="path298"
       style="fill:#ffffff;stroke-width:0.352731" />
    <path
       class="st0"
       d="m 5.6613381,70.902514 c 0.00347,0.264549 0.1728385,0.373896 0.3703672,0.373896 0.1410934,0 0.2257489,-0.02469 0.2962942,-0.05643 l 0.031743,0.141094 c -0.067018,0.03174 -0.1869473,0.06702 -0.3562583,0.06702 -0.3315683,0 -0.529097,-0.218693 -0.529097,-0.543206 0,-0.324513 0.1904749,-0.57848 0.5044055,-0.57848 0.3492033,0 0.4444415,0.310405 0.4444415,0.507933 0,0.03881 -0.00347,0.07055 -0.00707,0.09171 M 6.2362756,70.764952 c 0.00347,-0.12345 -0.04938,-0.317458 -0.2716042,-0.317458 -0.1975286,0 -0.2821841,0.18342 -0.2998204,0.317458 z"
       id="path300"
       style="fill:#ffffff;stroke-width:0.352731" />
    <path
       class="st0"
       d="m 6.772441,71.205863 c 0.056433,0.0388 0.1587297,0.0776 0.257494,0.0776 0.1410921,0 0.2081113,-0.07055 0.2081113,-0.158728 0,-0.09171 -0.056433,-0.14462 -0.2010562,-0.19753 -0.1940024,-0.07055 -0.285713,-0.176366 -0.285713,-0.303349 0,-0.172837 0.1410934,-0.313931 0.3703685,-0.313931 0.1093456,0 0.2045837,0.03174 0.2645478,0.06702 l -0.04938,0.141092 c -0.042328,-0.02822 -0.1199308,-0.06349 -0.2186938,-0.06349 -0.116398,0 -0.1798936,0.06702 -0.1798936,0.148147 0,0.08819 0.063485,0.126983 0.204585,0.183421 0.1869474,0.07055 0.2821841,0.165784 0.2821841,0.324512 0,0.190475 -0.1481471,0.320986 -0.4021136,0.320986 -0.116398,0 -0.2257476,-0.02822 -0.303348,-0.07407"
       id="path302"
       style="fill:#ffffff;stroke-width:0.352731" />
    <path
       class="st0"
       d="m 7.9223454,70.902514 c 0.00347,0.264549 0.1728385,0.373896 0.3703672,0.373896 0.1410934,0 0.2257489,-0.02469 0.2962942,-0.05643 l 0.031743,0.141094 c -0.070551,0.03174 -0.1869473,0.06702 -0.3562583,0.06702 -0.3315683,0 -0.529097,-0.218693 -0.529097,-0.543206 0,-0.324513 0.1904749,-0.57848 0.5044055,-0.57848 0.3492033,0 0.4444415,0.310405 0.4444415,0.507933 0,0.03881 -0.00347,0.07055 -0.00707,0.09171 M 8.4972829,70.764952 c 0.00347,-0.12345 -0.052913,-0.317458 -0.2716028,-0.317458 -0.19753,0 -0.285713,0.18342 -0.2998218,0.317458 z"
       id="path304"
       style="fill:#ffffff;stroke-width:0.352731" />
    <path
       class="st0"
       d="m 9.2944698,70.020686 v 0.310403 h 0.278658 v 0.148147 h -0.278658 v 0.57848 c 0,0.134039 0.038795,0.208111 0.1481472,0.208111 0.052913,0 0.088188,-0.0071 0.1128784,-0.0141 l 0.00707,0.148147 c -0.038795,0.0141 -0.09876,0.02469 -0.1728386,0.02469 -0.091708,0 -0.1657835,-0.02822 -0.2116387,-0.08114 -0.056433,-0.05643 -0.07407,-0.151673 -0.07407,-0.278657 V 70.479236 H 8.9382115 V 70.331089 H 9.103995 v -0.257494"
       id="path306"
       style="fill:#ffffff;stroke-width:0.352731" />
    <g
       transform="matrix(0.24933249,0,0,-0.24933204,-121.61522,173.89407)"
       id="g18785"
       style="display:inline;stroke-width:1.41489">
      <path
         d="m 501.5,631.5 c -3.511,0 -6.367,2.855 -6.367,6.366 0,3.511 2.856,6.367 6.367,6.367 3.511,0 6.367,-2.856 6.367,-6.367 0,-3.511 -2.856,-6.366 -6.367,-6.366"
         style="fill:#4c4c4c;fill-opacity:1;fill-rule:nonzero;stroke:#222222;stroke-width:1.06117;stroke-miterlimit:4;stroke-dasharray:none;stroke-opacity:1"
         id="path6825"
         inkscape:connector-curvature="0" />
      <path
         inkscape:connector-curvature="0"
         id="path6839"
         style="fill:#000000;fill-opacity:1;fill-rule:nonzero;stroke:none;stroke-width:1.41489"
         d="m 502.281,633.741 h -1.562 v 8.25 h 1.562 z" />
      <path
         inkscape:connector-curvature="0"
         id="path6841"
         style="fill:#000000;fill-opacity:1;fill-rule:nonzero;stroke:none;stroke-width:1.41489"
         d="m 505.625,637.085 h -8.25 v 1.562 h 8.25 z" />
    </g>
  </g>
  <g
     inkscape:groupmode="layer"
     id="layer2"
     inkscape:label="components"
     style="display:none">
    <circle
       style="fill:#ff0000;fill-opacity:1;stroke-width:0.434999;stroke-linejoin:round"
       id="path850"
       cx="12.606649"
       cy="16.749447"
       r="4.1577382"
       inkscape:label="latitude" />
    <circle
       style="fill:#ff0000;fill-opacity:1;stroke-width:0.434999;stroke-linejoin:round"
       id="path850-9"
       cx="12.612686"
       cy="36.429165"
       r="4.1577382"
       inkscape:label="altitude" />
    <circle
       style="fill:#ff0000;fill-opacity:1;stroke-width:0.434999;stroke-linejoin:round"
       id="path850-4"
       cx="12.604261"
       cy="56.102055"
       r="4.1577382"
       inkscape:label="longitude" />
    <circle
       style="fill:#0000ff;fill-opacity:1;stroke-width:0.434999;stroke-linejoin:round"
       id="path890"
       cx="18.327915"
       cy="87.371536"
       r="3.4017856"
       inkscape:label="lat" />
    <circle
       style="fill:#0000ff;fill-opacity:1;stroke-width:0.434999;stroke-linejoin:round"
       id="path890-9"
       cx="18.327915"
       cy="98.800034"
       r="3.4017856"
       inkscape:label="alt" />
    <circle
       style="fill:#0000ff;fill-opacity:1;stroke-width:0.434999;stroke-linejoin:round"
       id="path890-4"
       cx="18.327915"
       cy="110.22852"
       r="3.4017856"
       inkscape:label="lon" />
    <circle
       style="fill:#00ff00;fill-opacity:1;stroke-width:0.434999;stroke-linejoin:round"
       id="path890-6"
       cx="18.327915"
       cy="75.960678"
       r="3.4017856"
       inkscape:label="clock" />
    <circle
       style="fill:#00ff00;fill-opacity:1;stroke-width:0.434999;stroke-linejoin:round"
       id="path890-6-4"
       cx="6.899425"
       cy="75.960678"
       r="3.4017856"
       inkscape:label="reset" />
    <circle
       style="fill:#00ff00;fill-opacity:1;stroke-width:0.434999;stroke-linejoin:round"
       id="path890-6-6"
       cx="6.899425"
       cy="87.371536"
       r="3.4017856"
       inkscape:label="cv_lat" />
    <circle
       style="fill:#00ff00;fill-opacity:1;stroke-width:0.434999;stroke-linejoin:round"
       id="path890-6-8"
       cx="6.899425"
       cy="98.800034"
       r="3.4017856"
       inkscape:label="cv_alt" />
    <circle
       style="fill:#00ff00;fill-opacity:1;stroke-width:0.434999;stroke-linejoin:round"
       id="path890-6-9"
       cx="6.899425"
       cy="110.22852"
       r="3.4017856"
       inkscape:label="cv_lon" />
    <circle
       style="fill:#ff00ff;fill-opacity:1;stroke-width:0.804108;stroke-linejoin:round"
       id="path998"
       cx="5.3297706"
       cy="20.250303"
       r="1.3100618"
       inkscape:label="lat_changed" />
    <circle
       style="fill:#ff00ff;fill-opacity:1;stroke-width:0.804108;stroke-linejoin:round"
       id="path998-1"
       cx="5.3438797"
       cy="39.932709"
       r="1.3100618"
       inkscape:label="alt_changed" />
    <circle
       style="fill:#ff00ff;fill-opacity:1;stroke-width:0.804108;stroke-linejoin:round"
       id="path998-5"
       cx="5.3438797"
       cy="59.597477"
       r="1.3100618"
       inkscape:label="lon_changed" />
    <circle
       style="fill:#ff00ff;fill-opacity:1;stroke-width:0.804108;stroke-linejoin:round"
       id="path998-6"
       cx="19.93285"
       cy="52.613396"
       r="1.3100618"
       inkscape:label="lon" />
    <circle
       style="fill:#ff00ff;fill-opacity:1;stroke-width:0.804108;stroke-linejoin:round"
       id="path998-61"
       cx="19.93285"
       cy="32.948627"
       r="1.3100618"
       inkscape:label="alt" />
    <circle
       style="fill:#ff00ff;fill-opacity:1;stroke-width:0.804108;stroke-linejoin:round"
       id="path998-8"
       cx="19.93285"
       cy="13.266224"
       r="1.3100618"
       inkscape:label="lat" />
    <circle
       style="fill:#ff00ff;fill-opacity:1;stroke-width:0.804108;stroke-linejoin:round"
       id="path998-4"
       cx="5.3262429"
       cy="67.551567"
       r="1.3100618"
       inkscape:label="reset" />
    <circle
       style="fill:#ff00ff;fill-opacity:1;stroke-width:0.804108;stroke-linejoin:round"
       id="path998-81"
       cx="19.93285"
       cy="67.551567"
       r="1.3100618"
       inkscape:label="clock" />
  </g>
</svg>
